# xmcd
#
# Track frame offsets: 
#        150
#        13593
#        26504
#        39491
#        49207
#        61939
#        71890
#        82938
#        97720
#        107554
#        114551
#        128243
#        137640
#        152669
#        163762
#        174454
#        184843
#        194851
#        205205
#        219219
#
# Disc length: 3066 seconds
#
# Revision: 2
# Processed by: cddbd v1.5.2PL0 Copyright (c) Steve Scherf et al.
# Submitted via: ExactAudioCopyFreeDBPlugin 1.0
#
DISCID=130bf814
DTITLE=Peggy Lee - 20 Outstanding Performances
DYEAR=1900
DGENRE=Country
TTITLE0=Them There Eyes
TTITLE1=Manana
TTITLE2=It's a Good Day
TTITLE3=What's New?
TTITLE4=The Old Master Painter (witch Mel Torme)
TTITLE5=The Lady is a Tramp
TTITLE6=Why Don't You Do Right?
TTITLE7=How Long Has This Been Going On?
TTITLE8=That Old Black Magic
TTITLE9=People Will Say We`re In Love
TTITLE10=Bye Bye Blackbird
TTITLE11=Let There Be Love
TTITLE12=The Way You Look Tonight
TTITLE13=I Get A Kick Out Of You
TTITLE14=Fools Rush In
TTITLE15=From This Moment On
TTITLE16=The Surrey With The Fringe On Top
TTITLE17=Let's Do It (Let's Fall In Love)
TTITLE18=Waitin' For The Train To Come In
TTITLE19=Swing Low,Sweet Chariot
EXTD=
EXTT0=
EXTT1=
EXTT2=
EXTT3=
EXTT4=
EXTT5=
EXTT6=
EXTT7=
EXTT8=
EXTT9=
EXTT10=
EXTT11=
EXTT12=
EXTT13=
EXTT14=
EXTT15=
EXTT16=
EXTT17=
EXTT18=
EXTT19=
PLAYORDER=
